<svg width="63" height="63" viewBox="0 0 63 63" fill="none" xmlns="http://www.w3.org/2000/svg">
<path d="M0 21.1313C0 13.6567 0 9.9194 1.4777 7.07471C2.72294 4.67752 4.67752 2.72294 7.07471 1.4777C9.9194 0 13.6567 0 21.1313 0H41.8687C49.3433 0 53.0806 0 55.9253 1.4777C58.3225 2.72294 60.2771 4.67752 61.5223 7.07471C63 9.9194 63 13.6567 63 21.1313V41.8687C63 49.3433 63 53.0806 61.5223 55.9253C60.2771 58.3225 58.3225 60.2771 55.9253 61.5223C53.0806 63 49.3433 63 41.8687 63H21.1313C13.6567 63 9.9194 63 7.07471 61.5223C4.67752 60.2771 2.72294 58.3225 1.4777 55.9253C0 53.0806 0 49.3433 0 41.8687V21.1313Z" fill="url(#paint0_linear_54_2423)"/>
<path d="M43.75 40.25L45.15 31.5H36.75V25.375C36.75 22.925 37.625 21 41.475 21H45.5V12.95C43.225 12.6 40.775 12.25 38.5 12.25C31.325 12.25 26.25 16.625 26.25 24.5V31.5H18.375V40.25H26.25V63C29.75 63 33.25 63 36.75 63V40.25H43.75Z" fill="white"/>
<defs>
<linearGradient id="paint0_linear_54_2423" x1="31.5" y1="61.1593" x2="31.5" y2="0" gradientUnits="userSpaceOnUse">
<stop stop-color="#0062E0"/>
<stop offset="1" stop-color="#19AFFF"/>
</linearGradient>
</defs>
</svg>
