<svg width="64" height="64" viewBox="0 0 64 64" fill="none" xmlns="http://www.w3.org/2000/svg">
<g clip-path="url(#clip0_54_1169)">
<path d="M0.51709 21.3367C0.51709 13.8503 0.51709 10.1071 1.99712 7.25795C3.24433 4.85697 5.202 2.8993 7.60298 1.65209C10.4522 0.172058 14.1954 0.172058 21.6817 0.172058H42.452C49.9384 0.172058 53.6816 0.172058 56.5307 1.65209C58.9317 2.8993 60.8894 4.85697 62.1366 7.25795C63.6166 10.1071 63.6166 13.8503 63.6166 21.3367V42.107C63.6166 49.5933 63.6166 53.3365 62.1366 56.1857C60.8894 58.5867 58.9317 60.5444 56.5307 61.7916C53.6816 63.2716 49.9384 63.2716 42.452 63.2716H21.6817C14.1954 63.2716 10.4522 63.2716 7.60298 61.7916C5.202 60.5444 3.24433 58.5867 1.99712 56.1857C0.51709 53.3365 0.51709 49.5933 0.51709 42.107V21.3367Z" fill="url(#paint0_radial_54_1169)"/>
<path d="M0.51709 21.3367C0.51709 13.8503 0.51709 10.1071 1.99712 7.25795C3.24433 4.85697 5.202 2.8993 7.60298 1.65209C10.4522 0.172058 14.1954 0.172058 21.6817 0.172058H42.452C49.9384 0.172058 53.6816 0.172058 56.5307 1.65209C58.9317 2.8993 60.8894 4.85697 62.1366 7.25795C63.6166 10.1071 63.6166 13.8503 63.6166 21.3367V42.107C63.6166 49.5933 63.6166 53.3365 62.1366 56.1857C60.8894 58.5867 58.9317 60.5444 56.5307 61.7916C53.6816 63.2716 49.9384 63.2716 42.452 63.2716H21.6817C14.1954 63.2716 10.4522 63.2716 7.60298 61.7916C5.202 60.5444 3.24433 58.5867 1.99712 56.1857C0.51709 53.3365 0.51709 49.5933 0.51709 42.107V21.3367Z" fill="url(#paint1_radial_54_1169)"/>
<path d="M32.0317 8.77654C25.8003 8.77654 25.0183 8.80378 22.5709 8.91516C20.1282 9.02702 18.4609 9.41374 17.002 9.98116C15.493 10.5672 14.2128 11.3512 12.9375 12.627C11.6612 13.9024 10.8773 15.1826 10.2893 16.6912C9.72048 18.1506 9.33329 19.8185 9.22335 22.2602C9.11389 24.7077 9.08521 25.4903 9.08521 31.7218C9.08521 37.9534 9.11293 38.733 9.22383 41.1805C9.33616 43.6233 9.72287 45.2906 10.2898 46.7495C10.8763 48.2587 11.6603 49.5388 12.9361 50.8142C14.2109 52.0905 15.491 52.8764 16.9992 53.4625C18.459 54.0299 20.1268 54.4166 22.569 54.5285C25.0164 54.6399 25.798 54.6671 32.0288 54.6671C38.2607 54.6671 39.0403 54.6399 41.4878 54.5285C43.9304 54.4166 45.5996 54.0299 47.0595 53.4625C48.5681 52.8764 49.8463 52.0905 51.1211 50.8142C52.3974 49.5388 53.1814 48.2587 53.7693 46.75C54.3334 45.2906 54.7206 43.6228 54.8353 41.181C54.9452 38.7335 54.9739 37.9534 54.9739 31.7218C54.9739 25.4903 54.9452 24.7082 54.8353 22.2607C54.7206 19.818 54.3334 18.1506 53.7693 16.6917C53.1814 15.1826 52.3974 13.9024 51.1211 12.627C49.8448 11.3507 48.5685 10.5667 47.058 9.98116C45.5953 9.41374 43.927 9.02702 41.4844 8.91516C39.037 8.80378 38.2578 8.77654 32.0245 8.77654H32.0317ZM29.9734 12.9115C30.5843 12.9105 31.2659 12.9115 32.0317 12.9115C38.1579 12.9115 38.884 12.9335 41.3032 13.0434C43.5403 13.1457 44.7545 13.5195 45.5633 13.8336C46.634 14.2495 47.3974 14.7466 48.2 15.5497C49.0031 16.3528 49.5002 17.1176 49.917 18.1884C50.2311 18.9963 50.6054 20.2105 50.7072 22.4476C50.8171 24.8664 50.841 25.593 50.841 31.7166C50.841 37.8401 50.8171 38.5667 50.7072 40.9855C50.6049 43.2227 50.2311 44.4369 49.917 45.2447C49.5011 46.3155 49.0031 47.078 48.2 47.8806C47.3969 48.6836 46.6345 49.1808 45.5633 49.5967C44.7554 49.9122 43.5403 50.285 41.3032 50.3873C38.8845 50.4973 38.1579 50.5212 32.0317 50.5212C25.905 50.5212 25.1789 50.4973 22.7602 50.3873C20.5231 50.2841 19.3089 49.9103 18.4997 49.5962C17.4289 49.1803 16.6641 48.6832 15.861 47.8801C15.058 47.077 14.5608 46.3141 14.144 45.2428C13.83 44.4349 13.4557 43.2208 13.3539 40.9836C13.2439 38.5648 13.2219 37.8382 13.2219 31.7108C13.2219 25.5835 13.2439 24.8607 13.3539 22.4419C13.4562 20.2047 13.83 18.9905 14.144 18.1817C14.5599 17.1109 15.058 16.3461 15.861 15.543C16.6641 14.7399 17.4289 14.2428 18.4997 13.8259C19.3085 13.5104 20.5231 13.1376 22.7602 13.0348C24.8768 12.9392 25.6971 12.9105 29.9734 12.9057V12.9115ZM44.2793 16.7213C42.7593 16.7213 41.526 17.9532 41.526 19.4738C41.526 20.9939 42.7593 22.2273 44.2793 22.2273C45.7994 22.2273 47.0327 20.9939 47.0327 19.4738C47.0327 17.9537 45.7994 16.7204 44.2793 16.7204V16.7213ZM32.0317 19.9385C25.5245 19.9385 20.2487 25.2144 20.2487 31.7218C20.2487 38.2292 25.5245 43.5028 32.0317 43.5028C38.5389 43.5028 43.8128 38.2292 43.8128 31.7218C43.8128 25.2144 38.5384 19.9385 32.0312 19.9385H32.0317ZM32.0317 24.0734C36.2554 24.0734 39.6799 27.4975 39.6799 31.7218C39.6799 35.9457 36.2554 39.3702 32.0317 39.3702C27.8075 39.3702 24.3835 35.9457 24.3835 31.7218C24.3835 27.4975 27.8075 24.0734 32.0317 24.0734Z" fill="white"/>
</g>
<defs>
<radialGradient id="paint0_radial_54_1169" cx="0" cy="0" r="1" gradientUnits="userSpaceOnUse" gradientTransform="translate(17.278 68.1316) rotate(-90) scale(62.5363 58.1637)">
<stop stop-color="#FFDD55"/>
<stop offset="0.1" stop-color="#FFDD55"/>
<stop offset="0.5" stop-color="#FF543E"/>
<stop offset="1" stop-color="#C837AB"/>
</radialGradient>
<radialGradient id="paint1_radial_54_1169" cx="0" cy="0" r="1" gradientUnits="userSpaceOnUse" gradientTransform="translate(-10.0524 4.71764) rotate(78.6806) scale(27.954 115.228)">
<stop stop-color="#3771C8"/>
<stop offset="0.128" stop-color="#3771C8"/>
<stop offset="1" stop-color="#6600FF" stop-opacity="0"/>
</radialGradient>
<clipPath id="clip0_54_1169">
<rect width="63.0995" height="63.0995" fill="white" transform="translate(0.480957 0.172058)"/>
</clipPath>
</defs>
</svg>
