<svg width="64" height="64" viewBox="0 0 64 64" fill="none" xmlns="http://www.w3.org/2000/svg">
<path d="M0.87207 21.3367C0.87207 13.8503 0.87207 10.1071 2.3521 7.25796C3.59931 4.85698 5.55698 2.89932 7.95796 1.65211C10.8071 0.172073 14.5503 0.172073 22.0367 0.172073H42.807C50.2933 0.172073 54.0365 0.172073 56.8857 1.65211C59.2867 2.89932 61.2444 4.85698 62.4916 7.25796C63.9716 10.1071 63.9716 13.8503 63.9716 21.3367V42.107C63.9716 49.5934 63.9716 53.3365 62.4916 56.1857C61.2444 58.5867 59.2867 60.5444 56.8857 61.7916C54.0365 63.2716 50.2933 63.2716 42.807 63.2716H22.0367C14.5503 63.2716 10.8071 63.2716 7.95796 61.7916C5.55698 60.5444 3.59931 58.5867 2.3521 56.1857C0.87207 53.3365 0.87207 49.5934 0.87207 42.107V21.3367Z" fill="url(#paint0_linear_54_1170)"/>
<path fill-rule="evenodd" clip-rule="evenodd" d="M34.2542 8.83859C39.8395 9.11309 45.0439 11.4163 49.0189 15.394C53.259 19.6367 55.5928 25.2764 55.5905 31.274C55.5855 43.6505 45.5099 53.7206 33.1327 53.7206H33.1234C29.3646 53.7193 25.6715 52.7768 22.3912 50.9885L10.4858 54.1099L13.672 42.478C11.7067 39.0739 10.6725 35.2125 10.6741 31.2562C10.6791 18.88 20.7538 8.81084 33.1323 8.81084L34.2542 8.83859ZM22.9427 46.9248L23.6245 47.3291C26.4904 49.029 29.7755 49.9284 33.125 49.9297H33.1326C43.4209 49.9297 51.7945 41.56 51.7986 31.2727C51.8006 26.2876 49.8609 21.6001 46.3367 18.0736C42.8123 14.547 38.1258 12.6037 33.14 12.6021C22.8438 12.6021 14.4701 20.9709 14.466 31.2575C14.4646 34.7828 15.4514 38.2161 17.3199 41.1864L17.7637 41.8924L15.878 48.7771L22.9427 46.9248ZM44.4467 36.6118C44.3065 36.3777 43.9325 36.2374 43.3713 35.9566C42.8102 35.6759 40.0513 34.319 39.537 34.1317C39.0226 33.9448 38.6484 33.8512 38.2744 34.4125C37.9004 34.974 36.825 36.2374 36.4975 36.6118C36.1703 36.986 35.8429 37.0329 35.2819 36.7521C34.7207 36.4715 32.9126 35.8791 30.7692 33.9683C29.101 32.481 27.9748 30.6444 27.6475 30.0829C27.3202 29.5215 27.6126 29.2178 27.8935 28.9383C28.146 28.6869 28.4547 28.2831 28.7353 27.9556C29.0159 27.6282 29.1093 27.3941 29.2965 27.0199C29.4835 26.6455 29.3899 26.3181 29.2497 26.0374C29.1093 25.7565 27.9871 22.9958 27.5196 21.8727C27.064 20.7792 26.6013 20.9272 26.2569 20.91C25.93 20.8938 25.5555 20.8902 25.1815 20.8902C24.8074 20.8902 24.1994 21.0305 23.6851 21.5921C23.1707 22.1535 21.721 23.5105 21.721 26.2711C21.721 29.0319 23.7318 31.6987 24.0124 32.0731C24.293 32.4476 27.9693 38.1124 33.5984 40.5421C34.9372 41.12 35.9825 41.465 36.7974 41.7235C38.1418 42.1504 39.365 42.0902 40.3319 41.9458C41.41 41.7848 43.6519 40.5889 44.1195 39.279C44.5871 37.9686 44.5871 36.8457 44.4467 36.6118Z" fill="white"/>
<defs>
<linearGradient id="paint0_linear_54_1170" x1="32.4219" y1="63.2716" x2="32.4219" y2="0.172073" gradientUnits="userSpaceOnUse">
<stop stop-color="#25CF43"/>
<stop offset="1" stop-color="#61FD7D"/>
</linearGradient>
</defs>
</svg>
