<svg width="206" height="206" viewBox="0 0 206 206" fill="none" xmlns="http://www.w3.org/2000/svg">
<path d="M0.968262 69.2536C0.968262 44.9316 0.968262 32.7706 5.77665 23.514C9.82862 15.7137 16.1888 9.35352 23.9891 5.30155C33.2457 0.493164 45.4067 0.493164 69.7287 0.493164H137.208C161.53 0.493164 173.691 0.493164 182.947 5.30155C190.748 9.35352 197.108 15.7137 201.16 23.514C205.968 32.7706 205.968 44.9316 205.968 69.2536V136.733C205.968 161.055 205.968 173.216 201.16 182.472C197.108 190.273 190.748 196.633 182.947 200.685C173.691 205.493 161.53 205.493 137.208 205.493H69.7287C45.4067 205.493 33.2457 205.493 23.9891 200.685C16.1888 196.633 9.82862 190.273 5.77665 182.472C0.968262 173.216 0.968262 161.055 0.968262 136.733V69.2536Z" fill="#FFF4CB"/>
<g clip-path="url(#clip0_212_177)">
<path d="M160.746 155.493H47.7769C45.8353 155.493 44.2612 153.919 44.2612 151.978V85.8838C44.2612 84.838 44.7267 83.8464 45.5318 83.1784L102.016 36.3034C103.318 35.2232 105.204 35.2232 106.506 36.3034L162.991 83.1784C163.796 83.8464 164.261 84.838 164.261 85.8838V151.978C164.261 153.919 162.687 155.493 160.746 155.493Z" fill="#FFCD14"/>
<path d="M162.991 83.1784L106.506 36.3034C105.855 35.7632 105.058 35.4932 104.261 35.4932V155.493H160.746C162.687 155.493 164.261 153.919 164.261 151.978V85.8838C164.261 84.838 163.796 83.8464 162.991 83.1784Z" fill="#FFB400"/>
<path d="M144.105 124.556H64.4175C62.4759 124.556 60.9019 122.982 60.9019 121.04V53.0713C60.9019 51.1297 62.4759 49.5557 64.4175 49.5557H144.105C146.047 49.5557 147.621 51.1297 147.621 53.0713V121.04C147.621 122.982 146.047 124.556 144.105 124.556Z" fill="#DCF5FA"/>
<path d="M144.105 49.5557H104.261V124.556H144.105C146.047 124.556 147.621 122.982 147.621 121.04V53.0713C147.621 51.1297 146.047 49.5557 144.105 49.5557Z" fill="#BEDCE6"/>
<path d="M103.257 92.3577C100.477 92.3577 97.4764 89.3537 97.4764 84.5003C97.4764 79.847 100.523 77.0664 103.469 77.0664C106.537 77.0664 108.704 79.9354 108.82 84.0871L108.816 84.8889C108.652 89.0467 106.221 92.3577 103.257 92.3577ZM125.735 78.3557C125.728 78.3313 125.721 78.3069 125.714 78.2828C123.977 72.5286 120.092 67.8172 114.773 65.0162C109.456 62.2157 103.371 61.6785 97.639 63.5026C92.2079 65.2316 87.6896 68.9589 84.9165 73.9975C82.1422 79.0377 81.4128 84.8488 82.8622 90.3606C84.1177 95.1341 86.8283 99.2523 90.7018 102.27C94.4307 105.175 99.0755 106.847 103.781 106.977C103.803 106.977 103.825 106.978 103.847 106.978C105.111 106.978 106.153 105.97 106.188 104.699C106.224 103.405 105.204 102.327 103.91 102.291C96.1622 102.077 89.3712 96.6805 87.3954 89.1683C85.0163 80.1207 90.1402 70.809 99.061 67.9693C103.587 66.5284 108.391 66.9529 112.589 69.1637C116.776 71.3692 119.839 75.0749 121.215 79.6009C122.087 82.8964 121.801 85.9581 120.26 89.8304C119.838 90.8929 118.528 93.3639 115.498 93.3639C114.928 93.3639 114.487 93.0069 114.275 92.7939C113.77 92.2862 113.471 91.5381 113.475 90.7925L113.504 84.9222C113.508 84.7616 113.513 84.6013 113.513 84.4391C113.513 84.3374 113.509 84.2375 113.507 84.1368L113.561 73.3171C113.567 72.0229 112.523 70.9682 111.229 70.9618H111.217C109.928 70.9618 108.88 72.0036 108.874 73.2941L108.87 74.1018C107.338 72.999 105.501 72.3789 103.469 72.3789C98.2191 72.3789 92.7889 76.9129 92.7889 84.5003C92.7889 91.4176 97.4848 97.0452 103.257 97.0452C105.703 97.0452 107.922 96.0409 109.666 94.3459C110.006 94.9895 110.438 95.5829 110.953 96.1002C112.205 97.3586 113.819 98.0514 115.498 98.0514C120.319 98.0514 123.369 94.6996 124.616 91.5627C126.538 86.7308 126.883 82.6576 125.735 78.3557" fill="#696969"/>
<path d="M106.188 104.698C106.221 103.524 105.383 102.531 104.261 102.329V106.938C105.331 106.746 106.157 105.827 106.188 104.698Z" fill="#555555"/>
<path d="M125.714 78.2829C123.977 72.529 120.092 67.8174 114.773 65.0164C111.475 63.2794 107.882 62.4141 104.261 62.4418V67.1318C107.13 67.1051 109.976 67.7883 112.589 69.1639C116.776 71.3693 119.839 75.075 121.215 79.6011C122.086 82.8966 121.8 85.9585 120.26 89.8308C119.838 90.8932 118.528 93.3643 115.498 93.3643C114.928 93.3643 114.487 93.0071 114.275 92.7943C113.77 92.2864 113.471 91.5382 113.474 90.7927L113.503 84.9225C113.508 84.762 113.513 84.6014 113.513 84.4395C113.513 84.3375 113.509 84.2379 113.507 84.1369L113.561 73.3172C113.567 72.023 112.523 70.9686 111.229 70.962H111.217C109.928 70.962 108.88 72.0038 108.873 73.2943L108.87 74.1022C107.54 73.1445 105.98 72.5515 104.261 72.4116V77.134C106.904 77.5857 108.714 80.3032 108.82 84.0872L108.816 84.8893C108.67 88.5657 106.753 91.5786 104.261 92.2268V96.9863C106.309 96.7512 108.164 95.8057 109.666 94.3463C110.006 94.9896 110.438 95.5831 110.953 96.1004C112.204 97.3587 113.819 98.0518 115.498 98.0518C120.318 98.0518 123.368 94.6997 124.616 91.5631C126.538 86.731 126.882 82.6578 125.734 78.3558C125.728 78.3314 125.721 78.3073 125.714 78.2829Z" fill="#555555"/>
<path d="M160.746 155.493H47.7769C45.8353 155.493 44.2612 153.919 44.2612 151.978V85.8838C44.2612 84.6069 44.9536 83.4306 46.0697 82.8104C47.1858 82.1905 48.5503 82.2243 49.6345 82.899L104.261 116.899L158.888 82.899C159.972 82.2243 161.336 82.1905 162.453 82.8104C163.569 83.4306 164.261 84.6069 164.261 85.8838V151.978C164.261 153.919 162.687 155.493 160.746 155.493Z" fill="#FFF037"/>
<path d="M162.453 82.8104C161.336 82.1905 159.972 82.2243 158.888 82.899L104.261 116.899V155.493H160.746C162.687 155.493 164.261 153.919 164.261 151.978V85.8838C164.261 84.6069 163.569 83.4306 162.453 82.8104Z" fill="#FFCD14"/>
</g>
<defs>
<clipPath id="clip0_212_177">
<rect width="120" height="120" fill="white" transform="translate(44.2612 35.4932)"/>
</clipPath>
</defs>
</svg>
