<svg width="206" height="206" viewBox="0 0 206 206" fill="none" xmlns="http://www.w3.org/2000/svg">
<path d="M0.880005 69.6921C0.880005 45.3701 0.880005 33.2091 5.68839 23.9525C9.74037 16.1521 16.1005 9.792 23.9009 5.74003C33.1574 0.931641 45.3184 0.931641 69.6404 0.931641H137.12C161.442 0.931641 173.603 0.931641 182.859 5.74003C190.66 9.792 197.02 16.1521 201.072 23.9525C205.88 33.2091 205.88 45.3701 205.88 69.6921V137.171C205.88 161.493 205.88 173.654 201.072 182.911C197.02 190.711 190.66 197.071 182.859 201.123C173.603 205.932 161.442 205.932 137.12 205.932H69.6404C45.3184 205.932 33.1574 205.932 23.9009 201.123C16.1005 197.071 9.74037 190.711 5.68839 182.911C0.880005 173.654 0.880005 161.493 0.880005 137.171V69.6921Z" fill="#46E963"/>
<path fill-rule="evenodd" clip-rule="evenodd" d="M109.574 46.9218C123.504 47.6064 136.485 53.3507 146.399 63.2715C156.974 73.8531 162.794 87.9189 162.789 102.877C162.776 133.745 137.647 158.861 106.777 158.861C95.1686 158.861 85.9437 155.294 79.9872 152.047L50.2943 159.832L58.2408 130.821C53.3392 122.331 50.7599 112.7 50.764 102.833C50.7764 71.9657 75.9033 46.8525 106.776 46.8525L109.574 46.9218ZM81.3627 141.912L83.063 142.92C90.2108 147.16 98.4042 149.403 106.758 149.406H106.777C132.437 149.406 153.321 128.532 153.331 102.874C153.336 90.4409 148.499 78.7499 139.709 69.9547C130.919 61.1589 119.23 56.3122 106.796 56.3081C81.1159 56.3081 60.2313 77.1805 60.221 102.836C60.2175 111.629 62.6787 120.191 67.339 127.6L68.4459 129.36L63.7428 146.531L81.3627 141.912ZM134.995 116.19C134.646 115.606 133.713 115.256 132.313 114.556C130.914 113.856 124.033 110.472 122.75 110.005C121.467 109.538 120.534 109.305 119.601 110.705C118.668 112.105 115.986 115.256 115.169 116.19C114.353 117.124 113.537 117.24 112.137 116.54C110.738 115.84 106.228 114.363 100.883 109.597C96.722 105.888 93.9132 101.307 93.0967 99.9067C92.2805 98.5065 93.0097 97.7492 93.7102 97.0519C94.34 96.4249 95.1101 95.4179 95.8098 94.6011C96.5096 93.7845 96.7427 93.2006 97.2094 92.2674C97.6758 91.3337 97.4425 90.5171 97.0927 89.8168C96.7427 89.1163 93.9439 82.2309 92.7777 79.4299C91.6414 76.7025 90.4876 77.0717 89.6285 77.0287C88.8132 76.9883 87.8792 76.9794 86.9464 76.9794C86.0133 76.9794 84.497 77.3292 83.2142 78.73C81.9313 80.1302 78.3158 83.5147 78.3158 90.3997C78.3158 97.2854 83.3308 103.937 84.0306 104.87C84.7304 105.804 93.8994 119.933 107.939 125.993C111.278 127.434 113.885 128.295 115.917 128.939C119.27 130.004 122.321 129.854 124.733 129.494C127.422 129.092 133.013 126.11 134.179 122.842C135.345 119.574 135.345 116.773 134.995 116.19Z" fill="white"/>
<mask id="mask0_212_178" style="mask-type:alpha" maskUnits="userSpaceOnUse" x="60" y="56" width="94" height="94">
<path fill-rule="evenodd" clip-rule="evenodd" d="M81.3627 141.911L83.0629 142.919C90.2108 147.159 98.4041 149.402 106.758 149.406H106.777C132.437 149.406 153.321 128.531 153.331 102.874C153.336 90.4403 148.498 78.7494 139.709 69.9541C130.919 61.1584 119.23 56.3117 106.795 56.3076C81.1158 56.3076 60.2312 77.18 60.221 102.836C60.2174 111.628 62.6786 120.191 67.3389 127.599L68.4458 129.36L63.7427 146.531L81.3627 141.911ZM134.995 116.19C134.646 115.606 133.713 115.256 132.313 114.556C130.914 113.855 124.033 110.471 122.75 110.004C121.467 109.538 120.534 109.305 119.601 110.705C118.668 112.105 115.986 115.256 115.169 116.19C114.353 117.123 113.537 117.24 112.137 116.54C110.738 115.84 106.228 114.362 100.883 109.597C96.7219 105.887 93.9131 101.307 93.0966 99.9062C92.2804 98.506 93.0096 97.7486 93.7102 97.0514C94.3399 96.4244 95.11 95.4174 95.8098 94.6005C96.5095 93.784 96.7426 93.2001 97.2093 92.2669C97.6757 91.3331 97.4424 90.5165 97.0927 89.8163C96.7426 89.1158 93.9438 82.2303 92.7776 79.4294C91.6413 76.702 90.4875 77.0712 89.6285 77.0281C88.8131 76.9877 87.8792 76.9788 86.9463 76.9788C86.0132 76.9788 84.497 77.3287 83.2141 78.7294C81.9312 80.1296 78.3157 83.5142 78.3157 90.3991C78.3157 97.2849 83.3308 103.936 84.0305 104.87C84.7303 105.804 93.8993 119.932 107.939 125.992C111.278 127.433 113.885 128.294 115.917 128.939C119.27 130.003 122.321 129.853 124.733 129.493C127.421 129.091 133.013 126.109 134.179 122.842C135.345 119.574 135.345 116.773 134.995 116.19Z" fill="black"/>
</mask>
<g mask="url(#mask0_212_178)">
<path d="M183.692 25.3066H26.317V182.682H183.692V25.3066Z" fill="url(#paint0_linear_212_178)"/>
</g>
<defs>
<linearGradient id="paint0_linear_212_178" x1="105.005" y1="182.682" x2="105.005" y2="25.3066" gradientUnits="userSpaceOnUse">
<stop stop-color="#25CF43"/>
<stop offset="1" stop-color="#61FD7D"/>
</linearGradient>
</defs>
</svg>
