<svg width="206" height="206" viewBox="0 0 206 206" fill="none" xmlns="http://www.w3.org/2000/svg">
<path d="M0.792236 69.5339C0.792236 45.2119 0.792236 33.0509 5.60062 23.7943C9.6526 15.9939 16.0127 9.6338 23.8131 5.58182C33.0697 0.773438 45.2307 0.773438 69.5527 0.773438H137.032C161.354 0.773438 173.515 0.773438 182.771 5.58182C190.572 9.6338 196.932 15.9939 200.984 23.7943C205.792 33.0509 205.792 45.2119 205.792 69.5339V137.013C205.792 161.335 205.792 173.496 200.984 182.753C196.932 190.553 190.572 196.913 182.771 200.965C173.515 205.773 161.354 205.773 137.032 205.773H69.5527C45.2307 205.773 33.0697 205.773 23.8131 200.965C16.0127 196.913 9.6526 190.553 5.60062 182.753C0.792236 173.496 0.792236 161.335 0.792236 137.013V69.5339Z" fill="#C8FFF0"/>
<path d="M106.906 44.4922C94.7605 44.4922 82.8883 48.0936 72.7901 54.841C62.6919 61.5884 54.8213 71.1788 50.1736 82.3993C45.5259 93.6198 44.3098 105.967 46.6792 117.878C49.0486 129.79 54.897 140.731 63.4848 149.319C72.0726 157.907 83.0141 163.755 94.9258 166.125C106.837 168.494 119.184 167.278 130.405 162.63C141.625 157.983 151.216 150.112 157.963 140.014C164.71 129.916 168.312 118.043 168.312 105.898C168.312 89.6125 161.842 73.9936 150.326 62.4777C138.81 50.9618 123.191 44.4922 106.906 44.4922ZM109.538 82.212C115.12 82.2185 120.471 84.4388 124.418 88.3858C128.365 92.3328 130.585 97.6842 130.592 103.266H125.327C125.323 99.0798 123.658 95.0662 120.698 92.106C117.738 89.1458 113.724 87.4809 109.538 87.4766V82.212ZM126.588 142.742C126.429 142.742 110.623 142.472 90.2972 122.507C70.332 102.189 70.0618 86.3753 70.0618 86.2157C70.0618 84.2466 82.343 69.0547 85.0572 69.0547C85.9988 69.0547 86.7315 69.6933 87.5339 70.6512C89.4662 72.9519 98.0098 86.4367 97.6168 88.6842C97.4285 89.7404 96.532 90.5428 93.9611 92.7002C92.6943 93.696 91.5089 94.7912 90.4159 95.9752C90.9393 98.1416 91.7171 100.239 92.733 102.222C96.5178 110.004 102.806 116.29 110.59 120.071C112.574 121.087 114.671 121.865 116.837 122.388C118.021 121.295 119.116 120.11 120.112 118.843C122.269 116.272 123.072 115.375 124.128 115.187C126.375 114.778 139.86 123.338 142.161 125.27C143.119 126.089 143.757 126.805 143.757 127.747C143.749 130.461 128.557 142.742 126.588 142.742ZM138.485 103.266C138.476 95.5916 135.424 88.2339 129.997 82.8072C124.57 77.3805 117.212 74.3279 109.538 74.3193V69.0547C118.608 69.0655 127.303 72.6734 133.717 79.087C140.131 85.5005 143.738 94.196 143.749 103.266H138.485Z" fill="url(#paint0_linear_212_179)"/>
<defs>
<linearGradient id="paint0_linear_212_179" x1="52.8435" y1="162.666" x2="147.061" y2="63.7369" gradientUnits="userSpaceOnUse">
<stop stop-color="#00A1E2"/>
<stop offset="1" stop-color="#00E0A5"/>
</linearGradient>
</defs>
</svg>
