<svg width="236" height="233" viewBox="0 0 236 233" fill="none" xmlns="http://www.w3.org/2000/svg">
<path d="M154.668 156.625C197.255 156.625 231.778 122.543 231.778 80.5C231.778 38.4573 197.255 4.375 154.668 4.375C112.082 4.375 77.5591 38.4573 77.5591 80.5C77.5591 122.543 112.082 156.625 154.668 156.625Z" fill="#EBD557"/>
<path d="M154.668 142.125C189.143 142.125 217.09 114.535 217.09 80.5C217.09 46.4655 189.143 18.875 154.668 18.875C120.194 18.875 92.2466 46.4655 92.2466 80.5C92.2466 114.535 120.194 142.125 154.668 142.125Z" fill="#FCEA81"/>
<path d="M158.34 69.625H150.997C148.075 69.625 145.273 68.4792 143.207 66.4398C141.142 64.4003 139.981 61.6342 139.981 58.75C139.981 55.8658 141.142 53.0997 143.207 51.0602C145.273 49.0208 148.075 47.875 150.997 47.875H176.7C178.647 47.875 180.515 47.1112 181.893 45.7515C183.27 44.3919 184.043 42.5478 184.043 40.625C184.043 38.7022 183.27 36.8581 181.893 35.4985C180.515 34.1388 178.647 33.375 176.7 33.375H162.012V18.875H147.325V33.665C140.934 34.6258 135.146 37.9282 131.111 42.9143C127.077 47.9004 125.094 54.204 125.557 60.569C126.021 66.934 128.896 72.893 133.611 77.2586C138.325 81.6242 144.533 84.0759 150.997 84.125H158.34C161.262 84.125 164.064 85.2708 166.13 87.3102C168.195 89.3497 169.356 92.1158 169.356 95C169.356 97.8842 168.195 100.65 166.13 102.69C164.064 104.729 161.262 105.875 158.34 105.875H132.637C130.69 105.875 128.822 106.639 127.444 107.998C126.067 109.358 125.293 111.202 125.293 113.125C125.293 115.048 126.067 116.892 127.444 118.252C128.822 119.611 130.69 120.375 132.637 120.375H147.325V134.875H162.012V120.085C168.402 119.124 174.191 115.822 178.225 110.836C182.26 105.85 184.243 99.546 183.779 93.181C183.316 86.816 180.441 80.857 175.726 76.4914C171.012 72.1258 164.804 69.6741 158.34 69.625Z" fill="#D7986C"/>
<path d="M139.981 163.875H136.309C139.231 163.875 142.032 165.021 144.098 167.06C146.164 169.1 147.325 171.866 147.325 174.75C147.325 177.634 146.164 180.4 144.098 182.44C142.032 184.479 139.231 185.625 136.309 185.625H132.637C135.559 185.625 138.361 186.771 140.426 188.81C142.492 190.85 143.653 193.616 143.653 196.5C143.653 199.384 142.492 202.15 140.426 204.19C138.361 206.229 135.559 207.375 132.637 207.375H128.965C131.887 207.375 134.689 208.521 136.755 210.56C138.82 212.6 139.981 215.366 139.981 218.25C139.981 221.134 138.82 223.9 136.755 225.94C134.689 227.979 131.887 229.125 128.965 229.125H66.5435L40.8403 221.875V156.625C51.856 156.625 59.1997 142.125 59.1997 142.125L73.8872 91.375C73.8872 91.375 92.2466 91.375 92.2466 113.125L88.5747 142.125H139.981C142.902 142.125 145.704 143.271 147.77 145.31C149.836 147.35 150.997 150.116 150.997 153C150.997 155.884 149.836 158.65 147.77 160.69C145.704 162.729 142.902 163.875 139.981 163.875Z" fill="#E7CEA0"/>
<path d="M4.12158 149.375H40.8403V229.125H4.12158V149.375Z" fill="#7BACE6"/>
<path d="M154.668 153.001C154.668 149.155 153.121 145.467 150.367 142.747C147.612 140.028 143.876 138.501 139.981 138.501H92.7239L95.9185 113.561C95.9365 113.416 95.9365 113.27 95.9185 113.126C95.9185 93.043 81.5247 87.7505 73.8872 87.7505C73.0631 87.7204 72.2527 87.9651 71.5866 88.4452C70.9205 88.9252 70.4374 89.6127 70.2153 90.3968L55.5278 140.748C53.0606 145.551 49.2338 149.543 44.5122 152.239V149.376C44.5122 148.414 44.1254 147.492 43.4367 146.812C42.7481 146.132 41.8142 145.751 40.8403 145.751H4.12158C3.14774 145.751 2.21378 146.132 1.52517 146.812C0.836564 147.492 0.449707 148.414 0.449707 149.376L0.449707 229.126C0.449707 230.087 0.836564 231.009 1.52517 231.689C2.21378 232.369 3.14774 232.751 4.12158 232.751H40.8403C41.8142 232.751 42.7481 232.369 43.4367 231.689C44.1254 231.009 44.5122 230.087 44.5122 229.126V226.697L65.552 232.751C65.8801 232.806 66.2154 232.806 66.5435 232.751H128.965C131.747 232.712 134.46 231.894 136.79 230.392C139.119 228.89 140.968 226.766 142.122 224.267C143.276 221.768 143.688 218.997 143.309 216.276C142.93 213.555 141.776 210.997 139.981 208.898C141.8 207.817 143.36 206.36 144.553 204.627C145.747 202.894 146.546 200.926 146.895 198.858C147.244 196.791 147.134 194.674 146.575 192.652C146.015 190.631 145.018 188.753 143.653 187.148C145.472 186.067 147.032 184.61 148.225 182.877C149.419 181.144 150.217 179.176 150.566 177.108C150.915 175.041 150.806 172.924 150.247 170.902C149.687 168.881 148.69 167.003 147.325 165.398C149.534 164.139 151.373 162.334 152.661 160.16C153.948 157.986 154.64 155.519 154.668 153.001ZM37.1685 225.501H7.79346V153.001H37.1685V225.501ZM128.965 225.501H67.0575L44.5122 219.157V159.816C55.5278 157.314 62.1739 144.373 62.4677 143.757C62.5691 143.546 62.655 143.328 62.7247 143.104L76.5677 95.3268C80.8638 96.2693 88.5013 99.7855 88.5747 112.908L84.9028 141.691C84.8401 142.197 84.8862 142.71 85.038 143.197C85.1898 143.684 85.4441 144.134 85.7841 144.518C86.1322 144.909 86.5617 145.222 87.0433 145.435C87.5248 145.647 88.0472 145.755 88.5747 145.751H139.981C141.929 145.751 143.797 146.514 145.174 147.874C146.551 149.234 147.325 151.078 147.325 153.001C147.325 154.923 146.551 156.767 145.174 158.127C143.797 159.487 141.929 160.251 139.981 160.251H121.622C120.648 160.251 119.714 160.632 119.025 161.312C118.337 161.992 117.95 162.914 117.95 163.876C117.95 164.837 118.337 165.759 119.025 166.439C119.714 167.119 120.648 167.501 121.622 167.501H136.309C138.257 167.501 140.125 168.264 141.502 169.624C142.879 170.984 143.653 172.828 143.653 174.751C143.653 176.673 142.879 178.517 141.502 179.877C140.125 181.237 138.257 182.001 136.309 182.001H117.95C116.976 182.001 116.042 182.382 115.353 183.062C114.665 183.742 114.278 184.664 114.278 185.626C114.278 186.587 114.665 187.509 115.353 188.189C116.042 188.869 116.976 189.251 117.95 189.251H132.637C134.585 189.251 136.453 190.014 137.83 191.374C139.207 192.734 139.981 194.578 139.981 196.501C139.981 198.423 139.207 200.267 137.83 201.627C136.453 202.987 134.585 203.751 132.637 203.751H114.278C113.304 203.751 112.37 204.132 111.681 204.812C110.993 205.492 110.606 206.414 110.606 207.376C110.606 208.337 110.993 209.259 111.681 209.939C112.37 210.619 113.304 211.001 114.278 211.001H128.965C130.913 211.001 132.781 211.764 134.158 213.124C135.535 214.484 136.309 216.328 136.309 218.251C136.309 220.173 135.535 222.017 134.158 223.377C132.781 224.737 130.913 225.501 128.965 225.501Z" fill="black"/>
<path d="M48.1841 55.125H51.856V58.75C51.856 59.7114 52.2428 60.6334 52.9314 61.3133C53.62 61.9931 54.554 62.375 55.5278 62.375C56.5017 62.375 57.4356 61.9931 58.1242 61.3133C58.8128 60.6334 59.1997 59.7114 59.1997 58.75V55.125H62.8716C63.8454 55.125 64.7794 54.7431 65.468 54.0633C66.1566 53.3834 66.5435 52.4614 66.5435 51.5C66.5435 50.5386 66.1566 49.6166 65.468 48.9367C64.7794 48.2569 63.8454 47.875 62.8716 47.875H59.1997V44.25C59.1997 43.2886 58.8128 42.3666 58.1242 41.6867C57.4356 41.0069 56.5017 40.625 55.5278 40.625C54.554 40.625 53.62 41.0069 52.9314 41.6867C52.2428 42.3666 51.856 43.2886 51.856 44.25V47.875H48.1841C47.2102 47.875 46.2763 48.2569 45.5877 48.9367C44.8991 49.6166 44.5122 50.5386 44.5122 51.5C44.5122 52.4614 44.8991 53.3834 45.5877 54.0633C46.2763 54.7431 47.2102 55.125 48.1841 55.125Z" fill="black"/>
<path d="M198.731 182H195.059V178.375C195.059 177.414 194.672 176.492 193.984 175.812C193.295 175.132 192.361 174.75 191.387 174.75C190.413 174.75 189.479 175.132 188.791 175.812C188.102 176.492 187.715 177.414 187.715 178.375V182H184.043C183.07 182 182.136 182.382 181.447 183.062C180.758 183.742 180.372 184.664 180.372 185.625C180.372 186.586 180.758 187.508 181.447 188.188C182.136 188.868 183.07 189.25 184.043 189.25H187.715V192.875C187.715 193.836 188.102 194.758 188.791 195.438C189.479 196.118 190.413 196.5 191.387 196.5C192.361 196.5 193.295 196.118 193.984 195.438C194.672 194.758 195.059 193.836 195.059 192.875V189.25H198.731C199.705 189.25 200.639 188.868 201.327 188.188C202.016 187.508 202.403 186.586 202.403 185.625C202.403 184.664 202.016 183.742 201.327 183.062C200.639 182.382 199.705 182 198.731 182Z" fill="black"/>
<path d="M154.668 0.750576C133.244 0.750576 112.697 9.15278 97.5475 24.1088C82.3981 39.0648 73.8872 59.3496 73.8872 80.5006C73.8872 81.462 74.2741 82.384 74.9627 83.0638C75.6513 83.7437 76.5852 84.1256 77.5591 84.1256C78.5329 84.1256 79.4669 83.7437 80.1555 83.0638C80.8441 82.384 81.231 81.462 81.231 80.5006C81.2353 66.7536 85.1985 53.2912 92.6583 41.6834C100.118 30.0755 110.767 20.8007 123.363 14.9406C135.959 9.08045 149.983 6.87656 163.8 8.58593C177.617 10.2953 190.656 15.8475 201.398 24.5949C212.14 33.3424 220.141 44.9246 224.469 57.9908C228.797 71.057 229.273 85.0685 225.841 98.3914C222.409 111.714 215.211 123.799 205.086 133.237C194.962 142.675 182.328 149.077 168.658 151.696C167.684 151.787 166.787 152.256 166.164 153.001C165.541 153.745 165.243 154.704 165.335 155.665C165.428 156.626 165.903 157.512 166.657 158.127C167.411 158.743 168.382 159.037 169.356 158.946H170.054C189.959 155.352 207.774 144.515 219.974 128.576C232.174 112.638 237.87 92.7599 235.936 72.8741C234.002 52.9883 224.578 34.5433 209.53 21.1877C194.481 7.83219 174.903 0.538895 154.668 0.750576Z" fill="black"/>
<path d="M187.715 95C187.715 87.3087 184.62 79.9325 179.112 74.4939C173.603 69.0553 166.131 66 158.34 66H150.997C149.049 66 147.181 65.2362 145.804 63.8765C144.427 62.5169 143.653 60.6728 143.653 58.75C143.653 56.8272 144.427 54.9831 145.804 53.6235C147.181 52.2638 149.049 51.5 150.997 51.5H176.7C179.621 51.5 182.423 50.3542 184.489 48.3148C186.555 46.2753 187.715 43.5092 187.715 40.625C187.715 37.7408 186.555 34.9747 184.489 32.9352C182.423 30.8958 179.621 29.75 176.7 29.75H165.684V18.875C165.684 17.9136 165.297 16.9916 164.609 16.3117C163.92 15.6319 162.986 15.25 162.012 15.25H147.325C146.351 15.25 145.417 15.6319 144.728 16.3117C144.04 16.9916 143.653 17.9136 143.653 18.875V30.6925C136.75 32.4736 130.739 36.6742 126.744 42.51C122.748 48.3459 121.04 55.4179 121.94 62.4056C122.839 69.3933 126.284 75.819 131.631 80.4829C136.978 85.1467 143.862 87.7299 150.997 87.75H158.34C160.288 87.75 162.156 88.5138 163.533 89.8735C164.91 91.2331 165.684 93.0772 165.684 95C165.684 96.9228 164.91 98.7669 163.533 100.127C162.156 101.486 160.288 102.25 158.34 102.25H132.637C129.716 102.25 126.914 103.396 124.848 105.435C122.782 107.475 121.622 110.241 121.622 113.125C121.622 116.009 122.782 118.775 124.848 120.815C126.914 122.854 129.716 124 132.637 124H143.653V134.875C143.653 135.836 144.04 136.758 144.728 137.438C145.417 138.118 146.351 138.5 147.325 138.5H162.012C162.986 138.5 163.92 138.118 164.609 137.438C165.297 136.758 165.684 135.836 165.684 134.875V123.058C171.986 121.451 177.569 117.824 181.557 112.746C185.544 107.667 187.71 101.425 187.715 95ZM161.498 116.496C160.616 116.619 159.809 117.055 159.228 117.722C158.647 118.389 158.332 119.242 158.34 120.121V131.25H150.997V120.375C150.997 119.414 150.61 118.492 149.921 117.812C149.233 117.132 148.299 116.75 147.325 116.75H132.637C131.663 116.75 130.729 116.368 130.041 115.688C129.352 115.008 128.965 114.086 128.965 113.125C128.965 112.164 129.352 111.242 130.041 110.562C130.729 109.882 131.663 109.5 132.637 109.5H158.34C162.236 109.5 165.972 107.972 168.726 105.253C171.48 102.534 173.028 98.8456 173.028 95C173.028 91.1544 171.48 87.4662 168.726 84.747C165.972 82.0277 162.236 80.5 158.34 80.5H150.997C145.461 80.4523 140.147 78.3491 136.111 74.6089C132.075 70.8687 129.613 65.7655 129.215 60.3147C128.817 54.8638 130.512 49.4648 133.963 45.1917C137.414 40.9187 142.367 38.0847 147.839 37.2537C148.721 37.1306 149.528 36.695 150.109 36.0281C150.69 35.3611 151.005 34.5084 150.997 33.6287V22.5H158.34V33.375C158.34 34.3364 158.727 35.2584 159.416 35.9383C160.104 36.6181 161.038 37 162.012 37H176.7C177.674 37 178.608 37.3819 179.296 38.0617C179.985 38.7416 180.372 39.6636 180.372 40.625C180.372 41.5864 179.985 42.5084 179.296 43.1883C178.608 43.8681 177.674 44.25 176.7 44.25H150.997C147.101 44.25 143.365 45.7777 140.611 48.497C137.857 51.2162 136.309 54.9044 136.309 58.75C136.309 62.5956 137.857 66.2838 140.611 69.003C143.365 71.7223 147.101 73.25 150.997 73.25H158.34C163.876 73.2977 169.19 75.4009 173.226 79.1411C177.262 82.8813 179.724 87.9845 180.122 93.4353C180.52 98.8862 178.825 104.285 175.374 108.558C171.923 112.831 166.969 115.665 161.498 116.496Z" fill="black"/>
</svg>
