<svg width="235" height="205" viewBox="0 0 235 205" fill="none" xmlns="http://www.w3.org/2000/svg">
<path d="M198.984 3.62753C197.73 1.74547 195.617 0.615234 193.355 0.615234H117.903H42.4497C40.1879 0.615234 38.0755 1.74547 36.8209 3.62753L2.039 55.8031C0.405112 58.2542 0.544964 61.4808 2.38543 63.7811L112.621 201.58C115.329 204.965 120.478 204.965 123.186 201.58L233.421 63.7811C235.261 61.4808 235.401 58.2542 233.768 55.8031L198.984 3.62753Z" fill="#9FDFF8"/>
<path d="M123.185 201.58L233.421 63.7811C235.261 61.4808 235.401 58.2542 233.767 55.8031L198.984 3.62753C197.73 1.74547 195.617 0.615234 193.355 0.615234H117.903V204.119C119.867 204.119 121.831 203.272 123.185 201.58Z" fill="#76CEFB"/>
<path d="M78.3688 59.9192L117.903 0.615234H42.4498C41.3492 0.615234 40.2848 0.884883 39.3369 1.37619L78.3688 59.9192Z" fill="#76CEFB"/>
<path d="M117.903 0.615234L157.437 59.9192L196.469 1.37665C195.52 0.884883 194.456 0.615691 193.356 0.615691H117.903V0.615234Z" fill="#72AEF6"/>
<path d="M233.421 63.7813C234.325 62.6506 234.817 61.2955 234.891 59.9189H157.436L145.111 104.426L119.013 204.018C120.587 203.758 122.087 202.952 123.184 201.581L177.241 134.008L233.421 63.7813Z" fill="#72AEF6"/>
<path d="M78.3701 59.9189H0.915161C0.9892 61.2955 1.48051 62.6502 2.38543 63.7813L58.5655 134.009L112.622 201.581C113.719 202.952 115.219 203.758 116.793 204.018L87.2548 91.5254L78.3701 59.9189Z" fill="#76CEFB"/>
<path d="M78.3701 59.9189L116.792 204.018C117.528 204.139 118.278 204.139 119.013 204.018L157.436 59.9189H78.3701Z" fill="#72AEF6"/>
<path d="M117.903 204.11C118.274 204.11 118.646 204.079 119.013 204.019L157.436 59.9199H117.903V204.11Z" fill="#6799E5"/>
</svg>
