<svg width="235" height="235" viewBox="0 0 235 235" fill="none" xmlns="http://www.w3.org/2000/svg">
<g clip-path="url(#clip0_54_1580)">
<path d="M209.155 212.445C173.349 241.674 61.5467 241.674 26.4711 212.445C-9.33499 183.215 -5.68137 58.2594 26.4711 25.3762C58.6237 -7.50692 177.003 -7.50692 209.155 25.3762C241.308 58.2594 244.962 183.216 209.155 212.445Z" fill="#8DC640"/>
<g opacity="0.2">
<path d="M118.544 161.294C86.3919 186.869 50.5857 200.023 16.972 200.753C-7.87331 158.37 -2.75793 55.3368 26.4716 25.3767C52.7781 -1.66043 135.351 -6.77582 182.849 10.0311C194.541 58.2598 170.427 119.641 118.544 161.294Z" fill="white"/>
</g>
<path d="M101.006 182.485C95.891 182.485 90.7761 180.293 87.8531 175.909L46.9321 123.296C41.0861 115.988 42.5479 105.758 49.8551 99.9121C57.1624 94.0661 67.3926 95.5279 73.2386 102.835L101.006 138.641L162.388 58.9911C168.234 51.6839 178.465 50.2221 185.772 56.0681C193.079 61.9141 194.541 72.1444 188.695 79.4516L114.16 175.909C110.506 179.562 106.122 182.485 101.006 182.485Z" fill="white"/>
</g>
<defs>
<clipPath id="clip0_54_1580">
<rect width="234" height="234" fill="white" transform="translate(0.813477 0.367188)"/>
</clipPath>
</defs>
</svg>
