<svg width="235" height="233" viewBox="0 0 235 233" fill="none" xmlns="http://www.w3.org/2000/svg">
<g clip-path="url(#clip0_54_1553)">
<path d="M195.397 139.243L214.911 128.047L183.846 74.7001L163.478 86.3328C157.451 89.7815 150.026 89.781 143.999 86.3314L126.188 76.1356C121.174 73.266 114.997 73.266 109.984 76.1356L74.1992 96.6196L78.4295 132.119L195.397 139.243Z" fill="#FFECE4"/>
<path d="M183.846 74.7002L173.792 80.4422L189.591 107.572C193.174 113.726 191.052 121.593 184.85 125.152L177.823 129.183L176.996 135.573L195.397 139.243L220.607 124.779L183.846 74.7002Z" fill="#FFDDCE"/>
<path d="M126.113 116.661C124.22 116.661 122.685 115.14 122.685 113.262C122.685 111.385 125.647 113.248 127.54 113.248C131.404 113.248 133.468 107.989 135.591 105.01C136.404 103.87 137.016 102.568 137.372 101.147C137.829 99.325 139.686 98.213 141.525 98.6684C143.362 99.1207 144.482 100.964 144.025 102.786C141.978 110.955 134.612 116.661 126.113 116.661Z" fill="#FFDDCE"/>
<path d="M114.289 199.977L115.89 200.813L129.747 208.745C133.862 211.101 139.126 209.649 141.424 205.525L144.52 199.967C146.757 195.952 145.34 190.901 141.334 188.608L133.464 184.103L152.606 195.06C156.721 197.415 161.985 195.964 164.282 191.84L167.379 186.282C169.616 182.267 168.199 177.215 164.193 174.922L152.512 168.236L169.836 178.152C173.897 180.477 179.089 179.097 181.433 175.071L184.635 169.573C186.98 165.547 185.589 160.4 181.529 158.075L170.936 152.009L184.217 159.613C188.364 161.987 193.67 160.493 195.939 156.312L198.974 150.719C201.149 146.712 199.717 141.717 195.743 139.441L148.888 112.621L135.587 105.007C132.838 108.521 128.538 110.783 123.705 110.783C119.37 110.783 115.464 108.963 112.722 106.052C111.02 104.246 108.26 103.894 106.101 105.13C104.849 105.846 103.059 106.87 101.056 108.017C92.6812 112.811 81.9711 109.967 77.1362 101.664L75.9849 99.6871C74.9986 97.9933 75.5836 95.8274 77.2925 94.8491L85.3152 90.2567C80.627 90.1407 76.0155 88.8561 71.9128 86.5084L51.2408 74.6973L22.0465 100.942L19.9492 128.432L38.4517 139.004L91.9682 188.317L114.289 199.977Z" fill="#FFCBBE"/>
<path d="M197.269 63.5322L182.581 71.9395C182.346 72.0741 182.266 72.3718 182.401 72.6042L216.128 130.521C216.264 130.754 216.564 130.834 216.799 130.699L231.486 122.292L223.194 97.1482L197.269 63.5322Z" fill="#F1F1F4"/>
<path d="M52.275 71.9397L1.16426 42.6833C0.837021 42.4957 0.427979 42.7299 0.427979 43.1047V120.328C0.427979 120.502 0.52167 120.662 0.673404 120.749L18.057 130.7C18.292 130.835 18.5922 130.755 18.7275 130.522L52.4541 72.6049C52.5903 72.3716 52.5099 72.0738 52.275 71.9397Z" fill="#F1F1F4"/>
<path d="M197.269 63.532L233.512 125.771C233.763 126.202 234.428 126.025 234.428 125.527V43.1047C234.428 42.7299 234.019 42.4957 233.692 42.6833L197.269 63.532Z" fill="#6BBEF6"/>
<path d="M117.14 42.7737L113.004 44.8241C107.579 47.5134 103.18 51.8747 100.468 57.2533L98.3994 61.3545C98.2061 61.7379 97.654 61.7379 97.4607 61.3545L95.3926 57.2533C92.6802 51.8747 88.2812 47.5134 82.8563 44.8241L78.7197 42.7737C78.333 42.582 78.333 42.0346 78.7197 41.843L82.8563 39.7926C88.2812 37.1033 92.6802 32.7419 95.3926 27.3634L97.4607 23.2621C97.654 22.8788 98.2061 22.8788 98.3994 23.2621L100.468 27.3634C103.18 32.7419 107.579 37.1033 113.004 39.7926L117.14 41.843C117.527 42.0346 117.527 42.582 117.14 42.7737Z" fill="#F4DD45"/>
<path d="M162.69 52.3633L159.243 54.0721C154.722 56.3132 151.056 59.9473 148.796 64.4296L147.072 67.8471C146.911 68.1665 146.451 68.1665 146.29 67.8471L144.567 64.4296C142.306 59.9473 138.64 56.3132 134.12 54.0721L130.673 52.3633C130.351 52.2034 130.351 51.7475 130.673 51.5876L134.12 49.8788C138.641 47.6377 142.306 44.0032 144.567 39.5213L146.29 36.1038C146.451 35.7844 146.911 35.7844 147.072 36.1038L148.796 39.5213C151.056 44.0036 154.722 47.6377 159.243 49.8788L162.69 51.5876C163.012 51.7475 163.012 52.2034 162.69 52.3633Z" fill="#F4DD45"/>
<path d="M195.743 139.441L148.888 112.621L135.587 105.007C135.325 105.342 135.049 105.666 134.759 105.977L152.744 116.272C158.793 119.735 160.933 127.362 157.556 133.424L130.325 182.301C127.009 188.255 121.522 192.253 115.391 193.876C115.588 195.978 114.289 199.976 114.289 199.976L115.889 200.812L129.746 208.744C133.861 211.1 139.125 209.648 141.423 205.524L144.52 199.966C146.757 195.951 145.34 190.899 141.333 188.606L133.463 184.101L152.606 195.059C156.721 197.414 161.985 195.963 164.282 191.839L167.379 186.28C169.616 182.266 168.199 177.214 164.193 174.921L152.512 168.235L169.836 178.151C173.897 180.475 179.089 179.096 181.434 175.07L184.636 169.571C186.98 165.546 185.59 160.399 181.53 158.074L170.937 152.007L184.218 159.611C188.365 161.985 193.671 160.492 195.94 156.31L198.975 150.717C201.149 146.712 199.718 141.716 195.743 139.441Z" fill="#EAAC9D"/>
<path d="M139.418 160.83L165.161 175.567C168.049 177.788 169.17 181.614 167.955 185.014L135.99 166.717C134.35 165.779 133.789 163.7 134.735 162.075C135.681 160.449 137.777 159.893 139.418 160.83ZM146.427 141.997C145.481 143.622 146.042 145.701 147.682 146.639L185.29 168.167C186.503 164.773 185.389 160.945 182.498 158.72L151.109 140.753C149.469 139.815 147.373 140.371 146.427 141.997ZM122.975 182.113C122.029 183.739 122.591 185.817 124.23 186.756L145.095 198.699C146.311 195.299 145.189 191.474 142.302 189.252L127.658 180.869C126.017 179.932 123.921 180.487 122.975 182.113Z" fill="#EAAC9D"/>
<path d="M142.302 189.253L130.285 182.374C129.129 184.433 127.713 186.256 126.1 187.827L145.095 198.7C146.31 195.3 145.19 191.475 142.302 189.253Z" fill="#DF9380"/>
<path d="M182.498 158.721L152.902 141.779L149.586 147.73L185.289 168.167C186.503 164.773 185.388 160.946 182.498 158.721Z" fill="#DF9380"/>
<path d="M165.16 175.567L141.594 162.077L138.278 168.028L167.954 185.015C169.17 181.615 168.048 177.788 165.16 175.567Z" fill="#DF9380"/>
<path d="M19.9255 97.2634C21.1101 97.2634 22.2623 96.6539 22.8971 95.5637L40.56 65.2324L34.6232 61.834L16.9603 92.1648C16.0138 93.7902 16.5755 95.8687 18.2148 96.8071C18.7546 97.1166 19.3437 97.2634 19.9255 97.2634Z" fill="#DFDDE2"/>
<path d="M51.9825 157.665L65.1505 150.128C70.7428 146.927 72.6586 139.837 69.4302 134.293C66.2017 128.749 59.051 126.849 53.4587 130.05L40.2908 137.587C36.23 139.912 34.8388 145.06 37.1834 149.085L40.3854 154.584C42.7295 158.61 47.9218 159.99 51.9825 157.665Z" fill="#FFECE4"/>
<path d="M65.4833 176.708L74.431 171.586C80.0233 168.385 81.9391 161.296 78.7107 155.751C75.4822 150.207 68.3315 148.307 62.7393 151.508L53.7915 156.63C49.7308 158.954 48.3396 164.102 50.6841 168.128L53.8861 173.626C56.2302 177.653 61.4225 179.032 65.4833 176.708Z" fill="#FFECE4"/>
<path d="M83.6229 193.094L91.9683 188.317C97.5605 185.117 99.4764 178.027 96.2479 172.483C93.0195 166.938 85.8688 165.039 80.2765 168.239L71.9311 173.016C67.8704 175.341 66.4792 180.489 68.8238 184.514L72.0258 190.013C74.3699 194.039 79.5622 195.419 83.6229 193.094Z" fill="#FFECE4"/>
<path d="M103.66 208.395L109.594 204.998C115.186 201.797 117.102 194.708 113.874 189.163C110.645 183.619 103.495 181.719 97.9023 184.92L91.9682 188.317C87.9075 190.642 86.5163 195.79 88.8609 199.815L92.0629 205.313C94.407 209.34 99.5993 210.72 103.66 208.395Z" fill="#FFECE4"/>
<path d="M69.4297 134.293C66.5079 129.276 60.375 127.243 55.0913 129.274C55.1639 129.389 55.2348 129.506 55.3038 129.625C58.5323 135.169 56.6164 142.258 51.0242 145.459L39.0591 152.308L40.3845 154.584C42.729 158.61 47.9214 159.99 51.9816 157.665L65.1496 150.127C70.7423 146.927 72.6586 139.837 69.4297 134.293Z" fill="#FFDDCE"/>
<path d="M78.7105 155.751C75.7891 150.734 69.6558 148.701 64.372 150.732C64.4447 150.847 64.5155 150.964 64.5846 151.083C67.813 156.627 65.8971 163.717 60.3049 166.918L52.5601 171.351L53.8855 173.627C56.23 177.653 61.4223 179.032 65.4826 176.708L74.4304 171.586C80.0231 168.385 81.9389 161.295 78.7105 155.751Z" fill="#FFDDCE"/>
<path d="M96.2477 172.482C93.3264 167.465 87.193 165.433 81.9093 167.464C81.982 167.579 82.0528 167.696 82.1218 167.814C85.3503 173.359 83.4344 180.448 77.8422 183.649L70.6997 187.738L72.0251 190.014C74.3697 194.04 79.562 195.419 83.6223 193.095L91.9677 188.317C97.5603 185.116 99.4762 178.027 96.2477 172.482Z" fill="#FFDDCE"/>
<path d="M113.874 189.164C110.952 184.147 104.819 182.115 99.5351 184.145C99.6078 184.26 99.6786 184.377 99.7476 184.496C102.976 190.04 101.06 197.13 95.468 200.331L90.7368 203.039L92.0622 205.315C94.4068 209.341 99.5991 210.72 103.659 208.396L109.593 204.999C115.186 201.797 117.102 194.708 113.874 189.164Z" fill="#FFDDCE"/>
</g>
<defs>
<clipPath id="clip0_54_1553">
<rect width="234" height="232" fill="white" transform="translate(0.427979 0.424805)"/>
</clipPath>
</defs>
</svg>
