<svg width="176" height="233" viewBox="0 0 176 233" fill="none" xmlns="http://www.w3.org/2000/svg">
<path d="M3.17262 196.541H25.8074V228.751L29.3714 232.951H147.346L151.169 230.152V197.631H171.587L175.935 194.394C175.935 183.238 175.935 173.298 175.935 172.416C175.935 159.523 167.538 148.253 157.398 144.15C155.976 143.609 138.96 137.13 125.589 132.04V132.04L120.462 133.251L111.004 137.802H64.2312L56.1588 131.971H51.0428L19.3193 144.15C11.3939 147.357 0.781738 157.445 0.781738 172.416V194.394L3.17262 196.541Z" fill="#FFF5F5"/>
<path d="M108.114 124.927L108.114 124.928C107.614 124.338 107.314 123.588 107.311 122.784L107.302 111.708L105.187 110.807H70.7056L69.3845 111.659V122.763C69.3845 123.728 69.0531 124.413 68.5903 124.919C68.5908 124.918 68.5908 124.918 68.5913 124.918L68.5903 126.444L80.7319 136.325L80.0197 138.659L80.5328 139.991H96.183L97.1933 138.192L96.4019 135.625L108.114 126.6V124.927Z" fill="#FED1A3"/>
<path d="M88.3586 110.806H70.7056L69.3845 111.658V122.762C69.3845 123.727 69.0531 124.412 68.5903 124.918L68.5913 124.917L68.5903 126.443L80.7319 136.324L80.0197 138.658L80.5328 139.99H88.3586V110.806Z" fill="#FFBC85"/>
<path d="M81.8497 139.99H94.856V232.952H81.8497V139.99Z" fill="#EEE1DD"/>
<path d="M81.8497 139.99H88.3586V232.952H81.8497V139.99Z" fill="#E1D3CE"/>
<path d="M101.158 147.233C102.272 148.855 104.567 149.179 106.1 147.929L125.589 132.042C117.273 128.876 110.367 126.246 109.502 125.917C108.948 125.707 108.479 125.359 108.113 124.928L96.1826 134.654C94.8491 135.741 94.5716 137.645 95.5409 139.056L101.158 147.233Z" fill="#EEE1DD"/>
<path d="M70.6166 147.929C72.1492 149.178 74.4447 148.855 75.5588 147.233L81.1749 139.056C82.1442 137.645 81.8672 135.74 80.5332 134.653L68.5908 124.918C68.388 125.14 68.1621 125.331 67.9238 125.49L51.042 131.972L70.6166 147.929Z" fill="#EEE1DD"/>
<path d="M3.17262 196.543H15.9148C15.9148 186.879 15.9148 177.334 15.9148 169.779C15.9148 155.444 22.3845 146.168 27.9655 140.832L19.3193 144.152C11.3939 147.358 0.781738 157.447 0.781738 172.418V194.395L3.17262 196.543Z" fill="#EEE1DD"/>
<path d="M138.847 30.5289C132.327 22.2272 125.779 18.9081 122.306 17.6411C121.729 17.4309 121.812 16.6085 122.419 16.5183L127.242 15.8042C127.682 15.7389 127.9 15.2368 127.636 14.8848C122.881 8.55234 109.663 1.47453 93.4237 0.951172C66.2353 0.951172 56.1791 14.5277 54.7271 21.2294C54.4169 22.6608 53.1244 23.6618 51.6374 23.7338C45.7167 24.0202 34.1006 28.401 44.3431 60.9263L46.055 62.4135H56.3561V55.5672L66.3971 50.1211L67.4356 42.0297H108.114L112.23 52.2214L118.878 54.4775V60.9259H127.742H131.578C131.578 51.1307 135.594 44.1716 138.809 40.171C141.069 37.3589 141.075 33.3655 138.847 30.5289Z" fill="#7B6C79"/>
<path d="M79.0277 23.7338C80.5147 23.6618 81.8072 22.6608 82.1174 21.2294C83.2582 15.9632 89.7173 6.45573 105.622 2.6223C101.836 1.6952 97.7381 1.09028 93.4237 0.951172C66.2353 0.951172 56.1791 14.5277 54.7271 21.2294C54.4169 22.6608 53.1244 23.6618 51.6374 23.7338C45.7167 24.0202 34.1006 28.401 44.3431 60.9263L46.055 62.4135H56.3561V55.5672L66.3971 50.1211L67.4356 42.0297H67.7564C66.7456 26.5364 74.529 23.9513 79.0277 23.7338Z" fill="#665E68"/>
<path d="M38.1029 71.8981C38.1029 79.6787 45.0884 86.0138 54.0076 84.6862L55.3272 83.0304V60.9352L53.9868 59.1077C45.0944 57.7977 38.1029 64.1021 38.1029 71.8981Z" fill="#FED1A3"/>
<path d="M48.0214 71.8977C48.0214 67.0103 50.7699 62.7102 55.011 60.5039L53.9868 59.1078C45.0944 57.7974 38.1029 64.1022 38.1029 71.8982C38.1029 79.6788 45.0884 86.0139 54.0076 84.6863L55.088 83.331C50.7999 81.1324 48.0214 76.8037 48.0214 71.8977Z" fill="#FFBC85"/>
<path d="M122.569 59.1173L121.411 60.1568V83.4193L122.549 84.6858C131.483 86.0148 138.453 79.6684 138.453 71.8977C138.453 63.9563 130.333 58.0978 122.569 59.1173Z" fill="#FED1A3"/>
<path d="M131.33 60.793C128.692 59.3757 125.604 58.7195 122.569 59.1178L121.411 60.1573V83.4198L122.549 84.6863C125.822 85.1734 128.829 84.6265 131.33 83.3605V60.793Z" fill="#FFBC85"/>
<path d="M150.666 194.395C148.832 194.395 147.346 195.856 147.346 197.659V232.951H169.758C173.17 232.951 175.936 230.233 175.936 226.879V194.395H150.666Z" fill="#FED1A3"/>
<path d="M26.0508 194.395H0.78125V226.879C0.78125 230.233 3.54688 232.952 6.95873 232.952H29.3714V197.659C29.3714 195.856 27.8844 194.395 26.0508 194.395Z" fill="#FED1A3"/>
<path d="M119.367 51.697C115.821 51.697 112.947 48.8718 112.947 45.3863C112.947 42.1814 110.751 39.3765 107.596 38.5695C96.3964 35.7062 84.5891 35.3904 73.2542 37.608V83.7053C73.2542 98.319 81.9889 110.123 94.1895 115.206C94.9989 115.556 95.8267 115.869 96.667 116.155C98.5453 115.699 100.367 115.095 102.112 114.339C114.805 109.052 122.569 96.8903 122.569 83.8843V54.8449C122.569 53.1062 121.135 51.697 119.367 51.697Z" fill="#FFE5C1"/>
<path d="M94.2807 114.34C82.3383 109.365 73.8234 97.8169 73.8234 83.5593C73.8234 81.0911 73.8234 54.2194 73.8234 37.4941C72.1916 37.8005 70.5691 38.1584 68.9591 38.5699C65.8035 39.3764 63.6085 42.1813 63.6085 45.3867C63.6085 48.8721 60.7341 51.6973 57.1886 51.6973C55.42 51.6973 53.9865 53.1066 53.9865 54.8452V83.8846C53.9865 96.8907 61.7505 109.052 74.4438 114.34C82.1373 117.671 91.097 117.829 98.1959 115.745C96.8569 115.352 95.5473 114.888 94.2807 114.34Z" fill="#FED1A3"/>
<path d="M15.9148 194.395H0.78125V226.879C0.78125 230.233 3.54688 232.952 6.95873 232.952H15.9148V194.395Z" fill="#FFBC85"/>
</svg>
