<svg width="48" height="62" viewBox="0 0 48 62" fill="none" xmlns="http://www.w3.org/2000/svg">
<path d="M16.9499 34.7163L23.7343 29.5695L30.4896 34.7163L27.9161 26.3819L34.7006 21.0011H26.3955L23.7343 12.7837L21.0732 21.0011H12.768L19.5233 26.3819L16.9499 34.7163ZM47.1291 23.9255C47.1291 10.9999 36.6599 0.530762 23.7343 0.530762C10.8087 0.530762 0.3396 10.9999 0.3396 23.9255C0.3396 29.8619 2.5621 35.2427 6.18828 39.366V61.9419L23.7343 56.0932L41.2804 61.9419V39.366C45.0511 35.1067 47.1316 29.6141 47.1291 23.9255ZM23.7343 6.37944C33.4139 6.37944 41.2804 14.2459 41.2804 23.9255C41.2804 33.6051 33.4139 41.4715 23.7343 41.4715C14.0548 41.4715 6.18828 33.6051 6.18828 23.9255C6.18828 14.2459 14.0548 6.37944 23.7343 6.37944Z" fill="#003570"/>
</svg>
