<svg width="63" height="62" viewBox="0 0 63 62" fill="none" xmlns="http://www.w3.org/2000/svg">
<path fill-rule="evenodd" clip-rule="evenodd" d="M31.3464 47.0311C25.7919 47.0311 20.1489 43.7339 16.8555 39.3697C1.05491 39.3697 0.577271 61.9419 0.577271 61.9419H62.1117C62.1117 61.9419 63.352 39.2695 45.5831 39.2695C42.2936 43.6877 36.9009 47.0311 31.3464 47.0311Z" fill="#003570"/>
<path fill-rule="evenodd" clip-rule="evenodd" d="M44.582 19.9718C44.582 26.4662 38.6539 38.8848 31.3352 38.8848C24.0281 38.8848 18.0962 26.4623 18.0962 19.9718C18.0962 13.4813 24.0243 8.21191 31.3352 8.21191C38.6539 8.21577 44.582 13.4852 44.582 19.9718Z" fill="#003570"/>
<path fill-rule="evenodd" clip-rule="evenodd" d="M50.4908 14.3669C50.4908 13.1497 48.7959 12.1674 46.6928 12.1597V9.65211C46.6928 9.27847 46.8353 0.530762 31.3814 0.530762C15.9352 0.530762 16.0777 9.27847 16.0777 9.65211V12.2483C16.0392 12.2483 16.0084 12.2367 15.9737 12.2367C13.8821 12.2367 12.1989 13.2036 12.1989 14.4015V25.0097C12.1989 26.2 13.886 27.1706 15.9737 27.1706C18.0615 27.1706 19.7563 26.2 19.7563 25.0097V14.4015C19.7563 14.2359 19.6523 14.0857 19.5907 13.9316V11.0388C19.5907 10.773 18.4813 4.17083 31.3814 4.17083C44.2853 4.17083 42.9449 10.773 42.9449 11.0388V14.0857C42.9218 14.182 42.8486 14.2667 42.8486 14.3669V25.2177C42.8486 26.4388 44.555 27.4287 46.6697 27.4287C46.7159 27.4287 46.7506 27.4133 46.7968 27.4133V31.3769H43.0065V35.1133H50.5293L50.4908 14.3669Z" fill="#003570"/>
</svg>
