<svg width="60" height="50" viewBox="0 0 60 50" fill="none" xmlns="http://www.w3.org/2000/svg">
<path d="M58.8721 43.4564C57.7369 42.3387 43.9808 37.0177 41.4846 36.014C39.0016 35.0278 38.0111 32.2949 38.0111 32.2949C38.0111 32.2949 36.8934 32.913 36.8934 31.1773C36.8934 29.4394 38.0111 32.2949 39.1287 25.5933C39.1287 25.5933 42.2297 24.7232 41.6139 17.5285H40.8688C40.8688 17.5285 42.7316 9.83626 40.8688 7.23274C38.9994 4.62921 38.2675 2.89353 34.1627 1.64875C30.0646 0.406156 31.5548 0.653798 28.5788 0.780906C25.5983 0.905823 23.1175 2.51878 23.1175 3.38443C23.1175 3.38443 21.2547 3.50935 20.514 4.25446C19.7689 4.99958 18.5285 8.47094 18.5285 9.33879C18.5285 10.2066 19.1487 16.0448 19.7689 17.2809L19.0303 17.5219C18.4101 24.7189 21.5111 25.5911 21.5111 25.5911C22.6288 32.2928 23.7465 29.4372 23.7465 31.1751C23.7465 32.9108 22.6288 32.2928 22.6288 32.2928C22.6288 32.2928 21.636 35.0234 19.1552 36.0118C16.6744 37.0045 2.90293 42.3387 1.78306 43.4542C0.665386 44.5937 0.790302 49.8008 0.790302 49.8008H27.1674L29.0916 42.2181L27.3822 40.5088L30.3254 37.5612L33.2686 40.5066L31.5592 42.216L33.4834 49.7986H59.8605C59.8605 49.7986 59.9986 44.5872 58.8677 43.4498L58.8721 43.4564Z" fill="#003570"/>
</svg>
