<svg width="160" height="53" viewBox="0 0 160 53" fill="none" xmlns="http://www.w3.org/2000/svg">
<path d="M32.2031 37.6382V34.3182H37.0031V37.6382H32.2031ZM28.4831 37.6382V9.07818H32.2031V37.6382H28.4831ZM37.0031 37.6382V34.3182C37.3231 34.3182 37.5365 34.4649 37.6431 34.7582C37.7498 35.0515 37.8031 35.4515 37.8031 35.9582C37.8031 36.4649 37.7498 36.8782 37.6431 37.1982C37.5365 37.4915 37.3231 37.6382 37.0031 37.6382ZM45.0288 37.6382V34.3182H49.3088V37.6382H45.0288ZM36.9888 37.6382V34.3182H43.1888L41.2688 35.8382V17.5982H45.0288V37.6382H36.9888ZM36.9888 37.6382C36.6421 37.6382 36.4288 37.4915 36.3488 37.1982C36.2421 36.8782 36.1888 36.4649 36.1888 35.9582C36.1888 35.4515 36.2421 35.0515 36.3488 34.7582C36.4288 34.4649 36.6421 34.3182 36.9888 34.3182V37.6382ZM49.3088 37.6382V34.3182C49.6554 34.3182 49.8688 34.4649 49.9488 34.7582C50.0554 35.0515 50.1088 35.4515 50.1088 35.9582C50.1088 36.4649 50.0554 36.8782 49.9488 37.1982C49.8688 37.4915 49.6554 37.6382 49.3088 37.6382ZM41.2688 13.9982V10.1182H45.0288V13.9982H41.2688ZM57.6535 37.3582C56.2401 36.1315 55.1601 34.7449 54.4135 33.1982C53.6668 31.6515 53.2935 30.0115 53.2935 28.2782C53.2935 26.7315 53.5735 25.3048 54.1335 23.9982C54.6935 22.6915 55.4401 21.5582 56.3735 20.5982C57.3335 19.6382 58.4668 18.9048 59.7735 18.3982C61.0801 17.8648 62.4668 17.5982 63.9335 17.5982C64.7068 17.5982 65.5335 17.6782 66.4135 17.8382C67.3201 17.9982 68.1868 18.2248 69.0135 18.5182L67.7735 21.6782C67.1335 21.4382 66.4935 21.2648 65.8535 21.1582C65.2135 21.0248 64.6001 20.9582 64.0135 20.9582C62.6535 20.9582 61.4401 21.2782 60.3735 21.9182C59.3335 22.5315 58.5201 23.3848 57.9335 24.4782C57.3468 25.5715 57.0535 26.8248 57.0535 28.2382C57.0535 30.9315 58.0935 33.1582 60.1735 34.9182L57.6535 37.3582ZM49.2935 37.6382V34.3182H69.4535V37.6382H49.2935ZM49.2935 37.6382C48.9468 37.6382 48.7335 37.4915 48.6535 37.1982C48.5468 36.8782 48.4935 36.4649 48.4935 35.9582C48.4935 35.4515 48.5468 35.0515 48.6535 34.7582C48.7335 34.4649 48.9468 34.3182 49.2935 34.3182V37.6382ZM100.839 37.6382V34.3182H105.119V37.6382H100.839ZM90.9991 46.7982C90.0391 46.7982 89.0257 46.7182 87.9591 46.5582C86.9191 46.4249 85.7724 46.2249 84.5191 45.9582L85.0791 42.9582C86.4924 43.1182 87.6657 43.2382 88.5991 43.3182C89.5324 43.3982 90.3324 43.4382 90.9991 43.4382C93.1324 43.4382 94.6791 43.0382 95.6391 42.2382C96.6257 41.4382 97.1191 40.2782 97.1191 38.7582V19.9582L98.6391 20.9582H92.3591C90.9457 20.9582 89.8391 21.1315 89.0391 21.4782C88.2391 21.7982 87.6791 22.4515 87.3591 23.4382C87.0391 24.3982 86.8791 25.8115 86.8791 27.6782C86.8791 29.5182 87.0391 30.9182 87.3591 31.8782C87.6791 32.8115 88.2257 33.4515 88.9991 33.7982C89.7991 34.1449 90.9191 34.3182 92.3591 34.3182H97.1191V37.6382H92.3591C90.0391 37.6382 88.2124 37.2915 86.8791 36.5982C85.5457 35.8782 84.5857 34.7849 83.9991 33.3182C83.4391 31.8249 83.1591 29.9448 83.1591 27.6782C83.1591 25.3848 83.4391 23.4915 83.9991 21.9982C84.5857 20.5048 85.5457 19.3982 86.8791 18.6782C88.2124 17.9582 90.0391 17.5982 92.3591 17.5982H100.839V38.7182C100.839 40.4249 100.439 41.8782 99.6391 43.0782C98.8391 44.3049 97.7057 45.2249 96.2391 45.8382C94.7724 46.4782 93.0257 46.7982 90.9991 46.7982ZM105.119 37.6382V34.3182C105.466 34.3182 105.679 34.4649 105.759 34.7582C105.866 35.0515 105.919 35.4515 105.919 35.9582C105.919 36.4649 105.866 36.8782 105.759 37.1982C105.679 37.4915 105.466 37.6382 105.119 37.6382ZM109.874 37.6382V9.07818H113.594V37.6382H109.874ZM105.114 37.6382V34.3182H109.874V37.6382H105.114ZM105.114 37.6382C104.767 37.6382 104.554 37.4915 104.474 37.1982C104.367 36.8782 104.314 36.4649 104.314 35.9582C104.314 35.4515 104.367 35.0515 104.474 34.7582C104.554 34.4649 104.767 34.3182 105.114 34.3182V37.6382ZM124.078 37.6382V34.3182H128.878V37.6382H124.078ZM120.358 37.6382V9.07818H124.078V37.6382H120.358ZM128.878 37.6382V34.3182C129.198 34.3182 129.411 34.4649 129.518 34.7582C129.625 35.0515 129.678 35.4515 129.678 35.9582C129.678 36.4649 129.625 36.8782 129.518 37.1982C129.411 37.4915 129.198 37.6382 128.878 37.6382ZM128.864 37.6382V34.3182H148.624L146.704 35.9982V19.6382L148.264 20.9582H141.944C140.504 20.9582 139.384 21.1315 138.584 21.4782C137.784 21.8248 137.224 22.4782 136.904 23.4382C136.61 24.3982 136.464 25.7982 136.464 27.6382C136.464 29.4782 136.61 30.8782 136.904 31.8382C137.224 32.7982 137.784 33.4515 138.584 33.7982C139.384 34.1449 140.504 34.3182 141.944 34.3182V36.9182C139.624 36.9182 137.797 36.6249 136.464 36.0382C135.13 35.4515 134.17 34.4782 133.584 33.1182C133.024 31.7582 132.744 29.9315 132.744 27.6382C132.744 25.3715 133.024 23.5048 133.584 22.0382C134.17 20.5448 135.13 19.4382 136.464 18.7182C137.797 17.9715 139.624 17.5982 141.944 17.5982H150.424V37.6382H128.864ZM128.864 37.6382C128.517 37.6382 128.304 37.4915 128.224 37.1982C128.117 36.8782 128.064 36.4649 128.064 35.9582C128.064 35.4515 128.117 35.0515 128.224 34.7582C128.304 34.4649 128.517 34.3182 128.864 34.3182V37.6382ZM138.144 14.3582V10.4782H141.904V14.3582H138.144ZM143.624 14.3582V10.4782H147.384V14.3582H143.624Z" fill="white"/>
<rect x="12.895" y="1.31396" width="146" height="49.8271" rx="3" stroke="white" stroke-width="2"/>
<path d="M0.136163 11.4883L12.8839 4.17224L12.8459 18.8701L0.136163 11.4883Z" fill="white"/>
</svg>
