<svg width="35" height="35" viewBox="0 0 35 35" fill="none" xmlns="http://www.w3.org/2000/svg">
<g clip-path="url(#clip0_41_274)">
<path d="M30.8255 31.2438C25.6229 35.4908 9.37804 35.4908 4.2816 31.2438C-0.921005 26.9968 -0.390136 8.8408 4.2816 4.06291C8.95333 -0.714981 26.1537 -0.714981 30.8255 4.06291C35.4972 8.8408 36.0281 26.9969 30.8255 31.2438Z" fill="#8DC640"/>
<g opacity="0.2">
<path d="M17.6598 23.8112C12.9881 27.5273 7.78551 29.4385 2.90146 29.5446C-0.708535 23.3865 0.0347254 8.41575 4.28175 4.06257C8.10406 0.134099 20.1019 -0.609161 27.0033 1.83286C28.7021 8.84046 25.1983 17.7591 17.6598 23.8112Z" fill="white"/>
</g>
<path d="M15.1115 26.8905C14.3683 26.8905 13.6251 26.5719 13.2004 25.9349L7.25459 18.2903C6.40517 17.2285 6.61756 15.7421 7.6793 14.8927C8.74103 14.0432 10.2275 14.2556 11.0769 15.3174L15.1115 20.52L24.0303 8.94688C24.8797 7.88514 26.3662 7.67275 27.4279 8.52217C28.4896 9.37158 28.702 10.858 27.8526 11.9198L17.0227 25.9349C16.4918 26.4658 15.8548 26.8905 15.1115 26.8905Z" fill="white"/>
</g>
<defs>
<clipPath id="clip0_41_274">
<rect width="34" height="34" fill="white" transform="translate(0.553589 0.428711)"/>
</clipPath>
</defs>
</svg>
